<svg data-v-3de53144="" id="Layer_1" data-name="Layer 1" xmlns="http://www.w3.org/2000/svg" viewBox="0 0 763.91 204.1" class="logo"><title data-v-3de53144="">Logo-white</title> <path data-v-3de53144="" d="M532.1,413.62c-4.92-5.26-15.65-1.91-15.65-1.91L391.52,436.26a46.26,46.26,0,0,0-10.12,2.23,29.5,29.5,0,0,0-16.82,12.77A36.24,36.24,0,0,0,358.71,469l-3.42,28.64c-1.55,10.66-2.74,21.39-4,32.06-1.68,13.77-3.21,27.62-4.73,41.46l-5.2,43.58a38.41,38.41,0,0,0,2.61-3.07c11-17.65,22-35.25,32.79-53l.1-.16v0l3.06-5a19.18,19.18,0,0,1,3.44-4.32,17.25,17.25,0,0,1,4-2.56,17.44,17.44,0,0,1,6.62-1.23l3,0H397c8.45-.09,16.9-.25,25.35-.41l24.21-.4h.07a74.64,74.64,0,0,0,20.94-.47,34.39,34.39,0,0,0,21.29-10.33,31.56,31.56,0,0,0,5.71-7.59c.33-.57.66-1.14,1-1.73h0l.33-1.08a18.36,18.36,0,0,0,.95-2.92h0l10.54-26.25c2.38-5.55,4.73-11.1,6.83-16.77q.78-2.12,1.59-4.23l8.05-20c2.47-6,4.93-12,7.26-18.09v0c.37-.91.7-1.79,1-2.64l1.18-3.18C536.14,421.35,535.76,416.28,532.1,413.62Zm-67.82,72.7c-.58,1.55-2.23,1.65-3.67,1.8-4.06.43-8.13.84-12.2,1.26-5.28.79-10.53,1.77-15.83,2.33s-8,3.25-9.31,8.3c-3.3,12.71-3.42,12.68-16.83,13.43-9.57.53-10.43-.4-8.94-9.8,1.16-7.32,2.4-14.62,3.52-21.94,1.89-12.41,2.66-13.18,15.36-14.81,17-3.56,34-7.21,51.06-10.64,4-.8,7,1.16,5.72,5.42C470.62,470,467.34,478.14,464.28,486.32Z" transform="translate(-341.32 -410.66)" class="cls-1"></path> <path data-v-3de53144="" d="M575.73,474.44H593v72.74H576l-.88-10.62c-4.13,8.56-15.49,12.69-23.61,12.83-21.54.15-37.47-13.13-37.47-38.65,0-25.08,16.67-38.21,37.91-38.07,9.74,0,19,4.58,23.17,11.81Zm-43.67,36.3c0,13.87,9.59,22.13,21.54,22.13,28.32,0,28.32-44.11,0-44.11C541.65,488.76,532.06,496.87,532.06,510.74Z" transform="translate(-341.32 -410.66)" class="cls-1"></path> <path data-v-3de53144="" d="M678.41,474.44,634,577.57H614.23L627.81,546l-29.07-71.56h21l11.07,31.43,6.93,20.51,7.53-20.07,13.27-31.87Z" transform="translate(-341.32 -410.66)" class="cls-1"></path> <path data-v-3de53144="" d="M705.7,444.05V547.18H687.85V444.05Z" transform="translate(-341.32 -410.66)" class="cls-1"></path> <path data-v-3de53144="" d="M741.11,453.94c0,14-21.24,14-21.24,0S741.11,439.92,741.11,453.94Zm-19.62,20.21v73h18v-73Z" transform="translate(-341.32 -410.66)" class="cls-1"></path> <path data-v-3de53144="" d="M812.81,467.07l13.28,10L818,487.43c5.6,6.34,7.67,13.57,7.67,21.54,0,9-3.39,21.69-15.34,27.15,12.09,6,15,14.75,15,24,0,20.07-15.34,32.46-36.44,32.46S752,579.79,752,560.16h17.85c0,9.45,8.7,15.64,19,15.64s18.44-5.6,18.44-15.64-9.44-14.6-18.44-14.6C766.19,545.56,752,531.69,752,509s16.52-36.89,36.88-36.89c5.76,0,11.66.74,16.67,4.14ZM769.88,509c0,12.69,8.56,20.21,19,20.21S807.8,521.51,807.8,509s-8.56-20.51-18.89-20.51S769.88,496.28,769.88,509Z" transform="translate(-341.32 -410.66)" class="cls-1"></path> <path data-v-3de53144="" d="M853.83,474.44l1.33,8.41c5.6-9,13.13-10.32,20.5-10.32,7.53,0,14.76,3,18.74,6.93l-8.11,15.64a18,18,0,0,0-13-4.72c-9.44,0-18.14,5-18.14,18.44v38.36h-18V474.44Z" transform="translate(-341.32 -410.66)" class="cls-1"></path> <path data-v-3de53144="" d="M958.87,474.44h17.26v72.74h-17l-.89-10.62c-4.13,8.56-15.49,12.69-23.61,12.83-21.54.15-37.47-13.13-37.47-38.65,0-25.08,16.67-38.21,37.92-38.07,9.73,0,19,4.58,23.16,11.81Zm-43.67,36.3c0,13.87,9.59,22.13,21.54,22.13,28.33,0,28.33-44.11,0-44.11C924.79,488.76,915.2,496.87,915.2,510.74Z" transform="translate(-341.32 -410.66)" class="cls-1"></path> <path data-v-3de53144="" d="M1039.72,547.18V508.23c0-9.59-5-18.29-14.9-18.29s-15.49,8.7-15.49,18.29v38.95h-18V474.3H1008l1.33,8.85c3.83-7.38,12.24-10,19.18-10,8.7,0,17.41,3.54,21.54,13.57,6.49-10.33,14.9-13.28,24.34-13.28,20.66,0,30.84,12.69,30.84,34.53v39.24h-18V507.94c0-9.59-4-17.71-13.72-17.71s-15.79,8.41-15.79,18v38.95Z" transform="translate(-341.32 -410.66)" class="cls-1"></path></svg>

